# xmcd
#
# Track frame offsets: 
#        150
#        12032
#        24454
#        34910
#        48717
#        60347
#        71212
#        81620
#        92966
#        103698
#        115041
#        129528
#
# Disc length: 1875 seconds
#
# Revision: 0
# Processed by: cddbd v1.4PL0 Copyright (c) Steve Scherf et al.
# Submitted via: ExactAudioCopy v0.95a4
#
DISCID=a307510c
DTITLE=Patsy Cline - Heart of a Legend [CD2]
DYEAR=2003
DGENRE=Country
TTITLE0=Walkin' After Midnight
TTITLE1=Poor Man's Riches (Or a Rich Man's Gold)
TTITLE2=Three Cigarettes in an Ashtray
TTITLE3=A Church, A Courtroom, and Then Goodbye
TTITLE4=I've Loved and Lost Again
TTITLE5=I Cried All the Way to the Altar
TTITLE6=Pick Me Up (On Your Way Down)
TTITLE7=Dear God
TTITLE8=Honky Tonk Merry-Go-Round
TTITLE9=Just Out of Reach
TTITLE10=Then You'll Know
TTITLE11=A Stranger in My Arms
EXTD=
EXTT0=
EXTT1=
EXTT2=
EXTT3=
EXTT4=
EXTT5=
EXTT6=
EXTT7=
EXTT8=
EXTT9=
EXTT10=
EXTT11=
PLAYORDER=
